<svg width="30" height="30" viewBox="0 0 30 30" fill="none" xmlns="http://www.w3.org/2000/svg">
<g clip-path="url(#clip0_91_101)">
<path d="M15 0.46875C6.97266 0.46875 0.46875 6.97266 0.46875 15C0.46875 23.0273 6.97266 29.5312 15 29.5312C23.0273 29.5312 29.5312 23.0273 29.5312 15C29.5312 6.97266 23.0273 0.46875 15 0.46875ZM15 26.7188C8.52539 26.7188 3.28125 21.4746 3.28125 15C3.28125 8.52539 8.52539 3.28125 15 3.28125C21.4746 3.28125 26.7188 8.52539 26.7188 15C26.7188 21.4746 21.4746 26.7188 15 26.7188ZM18.6211 20.6016L13.6465 16.9863C13.4648 16.8516 13.3594 16.6406 13.3594 16.418V6.79688C13.3594 6.41016 13.6758 6.09375 14.0625 6.09375H15.9375C16.3242 6.09375 16.6406 6.41016 16.6406 6.79688V15.0996L20.5547 17.9473C20.8711 18.1758 20.9355 18.6152 20.707 18.9316L19.6055 20.4492C19.377 20.7598 18.9375 20.8301 18.6211 20.6016Z" fill="#D8AE7E"/>
</g>
<defs>
<clipPath id="clip0_91_101">
<rect width="30" height="30" fill="white"/>
</clipPath>
</defs>
</svg>
