<svg enable-background="new 0 0 64 64" height="64" viewBox="0 0 64 64" width="64" xmlns="http://www.w3.org/2000/svg"><path d="m40 23c0-4.411-3.589-8-8-8s-8 3.589-8 8 3.589 8 8 8 8-3.589 8-8zm-12 0c0-2.206 1.794-4 4-4s4 1.794 4 4-1.794 4-4 4-4-1.794-4-4z"/><path d="m31.966 64c.574 0 1.12-.247 1.5-.677.882-1 21.605-24.682 21.534-40.298-.058-12.696-10.375-23.025-23-23.025-12.683 0-23 10.333-23 23.034 0 15.607 20.585 39.284 21.462 40.284.38.433.898.668 1.504.682zm.034-60c10.429 0 18.952 8.543 19 19.043.054 11.824-14.281 30.122-19.029 35.855-4.725-5.737-18.971-24.026-18.971-35.864 0-10.495 8.523-19.034 19-19.034z"/></svg>