<svg width="58" height="50" viewBox="0 0 58 50" fill="none" xmlns="http://www.w3.org/2000/svg">
<g clip-path="url(#clip0_88_20)">
<path d="M14.5859 48.7477C13.9478 48.7477 13.4464 48.2558 13.4464 47.6297V19.6333L10.2557 22.2719C10.2101 22.3166 10.1646 22.3166 10.1646 22.3613C9.70875 22.6297 9.20736 22.8086 8.70597 22.8086C7.79435 22.8086 6.97389 22.3613 6.4725 21.6458L1.59534 14.4454C0.77488 13.2379 1.13953 11.6279 2.37021 10.8229L15.9078 1.56528C15.9989 1.52056 16.0901 1.43111 16.2268 1.43111C16.2724 1.43111 17.5031 1.02861 19.2352 0.983887H20.6482C20.9673 0.983887 21.2863 1.11805 21.4686 1.34167C21.6966 1.56528 21.7877 1.87834 21.7421 2.1914C21.7421 2.23612 21.7421 2.32557 21.6966 2.37029C21.7877 5.72449 25.3886 8.85508 29.2174 8.85508C33.0462 8.85508 36.6471 5.72449 36.7383 2.37029C36.7383 2.32557 36.7383 2.23612 36.6927 2.1914C36.6471 1.87834 36.7839 1.56528 36.9662 1.34167C37.1485 1.11805 37.4676 0.983887 37.7866 0.983887H40.5671C41.661 0.983887 42.5271 1.47584 42.6182 1.52056C42.6638 1.52056 42.6638 1.56528 42.7094 1.56528L55.7911 10.8229C56.9762 11.5832 57.3409 13.2379 56.5204 14.4454L51.6433 21.2433C51.1875 21.9588 50.3214 22.4061 49.4098 22.4061C48.8628 22.4061 48.3614 22.2719 47.9512 21.9588C47.9056 21.9588 47.9056 21.9141 47.86 21.8694L44.9429 19.4991L44.8517 47.6297C44.8517 48.2558 44.3503 48.7477 43.7122 48.7477H14.5859Z" fill="white"/>
<path d="M40.6127 2.23616C41.4331 2.23616 42.0257 2.63867 42.0257 2.63867L55.1074 11.8516C55.8367 12.2988 56.019 13.238 55.5176 13.9535L50.6405 20.7066C50.367 21.1539 49.8656 21.3775 49.3642 21.3775C49.0907 21.3775 48.7717 21.288 48.4982 21.1092L43.7122 17.263L43.621 47.7639H14.5859V17.3524L9.48084 21.5564C9.20736 21.7353 8.93387 21.8247 8.61481 21.8247C8.11341 21.8247 7.61202 21.6011 7.33854 21.1539L2.50695 13.9535C2.05114 13.238 2.23347 12.3435 2.91718 11.8516L16.4547 2.59395C16.4547 2.59395 17.5487 2.23617 19.0984 2.19144H20.5114V2.28089V2.37033C20.5114 6.39538 24.6593 10.1074 29.1718 10.1074C33.6843 10.1074 37.8322 6.39538 37.8322 2.37033V2.28089V2.19144H40.5215H40.6127C40.5671 2.23617 40.6127 2.23616 40.6127 2.23616ZM40.6127 2.89381e-05H40.5215H37.8322C37.1941 2.89381e-05 36.6015 0.268365 36.1457 0.715593C35.7355 1.16282 35.5076 1.78894 35.5532 2.41506V2.59395C35.4164 5.32203 32.3169 7.91595 29.1718 7.91595C26.0267 7.91595 22.9272 5.32203 22.7905 2.59395V2.41506C22.8361 1.78894 22.6537 1.16282 22.1979 0.715593C21.7877 0.268365 21.1496 2.89381e-05 20.5114 2.89381e-05H19.0984H19.0529C17.2296 0.0447517 15.9078 0.447256 15.7254 0.491979C15.4975 0.581424 15.3152 0.67087 15.1329 0.805038L1.6865 10.0179C-0.0455824 11.1807 -0.501392 13.4616 0.638132 15.2058L5.5153 22.4061C6.24459 23.4347 7.4297 24.0609 8.70597 24.0609C9.43526 24.0609 10.1646 23.8372 10.8027 23.4347C10.8939 23.39 10.9394 23.3453 11.0306 23.3006L12.3524 22.1825V47.7639C12.3524 49.0161 13.3552 50 14.6315 50H43.7122C44.9884 50 45.9912 49.0161 45.9912 47.7639L46.0368 21.9589L47.0852 22.8086C47.1307 22.8533 47.2219 22.8981 47.2675 22.9428C47.9056 23.3453 48.6349 23.5689 49.3642 23.5689C50.6405 23.5689 51.8256 22.9428 52.5093 21.9142L57.3409 15.2058L57.3865 15.161C58.526 13.4616 58.0702 11.136 56.3381 10.0179L43.5754 0.67087C43.5298 0.626147 43.4843 0.626147 43.4387 0.581424C43.3019 0.491979 42.2536 -0.0894165 40.8861 -0.0894165L40.6127 2.89381e-05Z" fill="#D8AE7E"/>
</g>
<defs>
<clipPath id="clip0_88_20">
<rect width="58" height="50" fill="white"/>
</clipPath>
</defs>
</svg>
